#!OML:ASF X:\für Bonn\!DataBase\2005_08_11_Bastian_Final\c3d\Bastian.ASF
:FULLY-SPECIFIED
:DEGREES
110
root -2.42505 16.4898 6.46654 136.083 -25.6815 -167.063
lowerback 52.5223 -7.94016 1.00559
upperback 14.77 -17.4836 3.94288
thorax -2.44527 -12.4142 10.4844
lowerneck -12.5849 -5.78649 -3.89948
upperneck -8.67616 -5.60969 14.7494
head 0.0847041 -2.07042 4.88821
rclavicle 6.97734e-014 -6.36111e-015
rhumerus -30.8939 37.6406 -90.623
rradius 47.9946
rwrist -18.1064
rhand -31.5291 12.1028
rfingers 7.12502
rthumb -4.79405 -17.8229
lclavicle 6.97734e-014 -6.36111e-015
lhumerus 52.1729 -24.2621 76.9446
lradius 114.484
lwrist -28.614
lhand -59.0131 -14.1188
lfingers 7.12502
lthumb -31.2118 13.2421
rfemur -96.7421 -7.58865 38.6729
rtibia 135.572
rfoot 2.86537 -7.91514
rtoes -1.78961
lfemur 22.3527 -3.00919 -12.7592
ltibia 39.452
lfoot -13.6227 -14.7307
ltoes 4.52819
111
root -2.42206 16.5041 6.47268 136.26 -25.5896 -167.051
lowerback 52.3008 -7.9433 1.01307
upperback 14.7632 -17.4322 3.89617
thorax -2.45565 -12.3574 10.4011
lowerneck -12.6091 -5.81634 -3.89659
upperneck -8.6706 -5.64181 14.8438
head 0.0975655 -2.08135 4.91456
rclavicle -3.37934e-015 3.97569e-014
rhumerus -31.1272 37.7193 -90.7522
rradius 47.8354
rwrist -18.2506
rhand -31.4363 12.1689
rfingers 7.12502
rthumb -4.70442 -17.7589
lclavicle -3.37934e-015 3.97569e-014
lhumerus 51.8298 -24.3463 77.179
lradius 114.199
lwrist -28.3064
lhand -58.8583 -14.2868
lfingers 7.12502
lthumb -31.0643 13.1024
rfemur -96.1843 -8.02786 38.3932
rtibia 135.604
rfoot 2.70327 -7.60707
rtoes -1.21231
lfemur 22.2734 -3.00569 -12.7239
ltibia 39.2389
lfoot -13.5377 -14.6209
ltoes 4.284
112
root -2.41898 16.5189 6.47892 136.46 -25.4919 -167.006
lowerback 52.0439 -7.96587 1.0504
upperback 14.7485 -17.3804 3.85755
thorax -2.47243 -12.2954 10.3122
lowerneck -12.6575 -5.85377 -3.88609
upperneck -8.64733 -5.68996 14.9051
head 0.119014 -2.09995 4.92801
rclavicle -6.79844e-014 3.85642e-014
rhumerus -31.3496 37.7249 -90.8683
rradius 47.6457
rwrist -18.3266
rhand -31.3217 12.2096
rfingers 7.12502
rthumb -4.59375 -17.7206
lclavicle -6.79844e-014 3.85642e-014
lhumerus 51.4753 -24.4064 77.4388
lradius 113.902
lwrist -27.9777
lhand -58.7311 -14.5049
lfingers 7.12502
lthumb -30.943 12.9074
rfemur -95.5693 -8.48524 38.127
rtibia 135.61
rfoot 2.58044 -7.31162
rtoes -1.29263
lfemur 22.1604 -3.02171 -12.66
ltibia 39.0051
lfoot -13.437 -14.4925
ltoes 4.09057
113
root -2.4156 16.537 6.48533 136.681 -25.3844 -166.973
lowerback 51.7659 -7.98748 1.09166
upperback 14.727 -17.3173 3.81225
thorax -2.49844 -12.2224 10.2107
lowerneck -12.7271 -5.8955 -3.88251
upperneck -8.58628 -5.74901 14.9772
head 0.15665 -2.12216 4.94442
rclavicle 5.64548e-014 1.03766e-013
rhumerus -31.6228 37.7251 -91.005
rradius 47.4543
rwrist -18.4325
rhand -31.214 12.2829
rfingers 7.12502
rthumb -4.48975 -17.6495
lclavicle 5.64548e-014 1.03766e-013
lhumerus 51.0719 -24.4539 77.719
lradius 113.564
lwrist -27.625
lhand -58.6794 -14.8082
lfingers 7.12502
lthumb -30.8937 12.6135
rfemur -94.9224 -8.94102 37.8487
rtibia 135.606
rfoot 2.52834 -6.9556
rtoes -1.52689
lfemur 22.0598 -3.05586 -12.6193
ltibia 38.7417
lfoot -13.3399 -14.3547
ltoes 3.84838
114
root -2.4117 16.5566 6.4922 136.916 -25.2947 -166.945
lowerback 51.4609 -8.00206 1.11986
upperback 14.7205 -17.257 3.77118
thorax -2.50028 -12.1548 10.1139
lowerneck -12.83 -5.93892 -3.85599
upperneck -8.54736 -5.80813 15.0121
head 0.190364 -2.14334 4.94537
rclavicle -2.98177e-015 9.50191e-014
rhumerus -31.8693 37.7427 -91.1229
rradius 47.2557
rwrist -18.5404
rhand -31.1302 12.3309
rfingers 7.12502
rthumb -4.40886 -17.6032
lclavicle -2.98177e-015 9.50191e-014
lhumerus 50.7218 -24.4864 77.9692
lradius 113.193
lwrist -27.258
lhand -58.6804 -15.0291
lfingers 7.12502
lthumb -30.8947 12.3924
rfemur -94.2482 -9.43689 37.5448
rtibia 135.607
rfoot 2.47198 -6.5572
rtoes -1.57687
lfemur 21.9576 -3.10589 -12.6088
ltibia 38.451
lfoot -13.2451 -14.1752
ltoes 3.50763
115
root -2.40825 16.5781 6.49951 137.164 -25.1734 -166.908
lowerback 51.1567 -8.04116 1.17515
upperback 14.6838 -17.1975 3.71732
thorax -2.5424 -12.076 9.99954
lowerneck -12.8774 -5.97385 -3.83775
upperneck -8.50826 -5.85926 15.044
head 0.214896 -2.16445 4.94802
rclavicle 1.08735e-013 -2.66371e-014
rhumerus -32.1821 37.808 -91.2699
rradius 47.069
rwrist -18.7096
rhand -31.08 12.3208
rfingers 7.12502
rthumb -4.36042 -17.6143
lclavicle 1.08735e-013 -2.66371e-014
lhumerus 50.2997 -24.4662 78.2324
lradius 112.761
lwrist -26.967
lhand -58.7922 -15.0767
lfingers 7.12502
lthumb -31.0013 12.3245
rfemur -93.5156 -9.91453 37.2535
rtibia 135.572
rfoot 2.30348 -6.14007
rtoes -2.30388
lfemur 21.858 -3.15901 -12.5758
ltibia 38.123
lfoot -13.1125 -13.9741
ltoes 3.24575
116
root -2.40378 16.6024 6.5074 137.464 -25.0585 -166.874
lowerback 50.7706 -8.07058 1.22825
upperback 14.6756 -17.1291 3.65914
thorax -2.54438 -11.9939 9.86505
lowerneck -12.9709 -6.01607 -3.77123
upperneck -8.48384 -5.91822 15.0715
head 0.241056 -2.18661 4.94038
rclavicle -3.99557e-014 1.07344e-014
rhumerus -32.4561 37.8289 -91.4173
rradius 46.8836
rwrist -18.9467
rhand -31.0523 12.3509
rfingers 7.12502
rthumb -4.3336 -17.5847
lclavicle -3.99557e-014 1.07344e-014
lhumerus 49.9417 -24.4337 78.4299
lradius 112.275
lwrist -26.6466
lhand -58.9846 -15.2192
lfingers 7.12502
lthumb -31.1847 12.1469
rfemur -92.7554 -10.3972 36.9468
rtibia 135.52
rfoot 2.01036 -5.76269
rtoes -4.0455
lfemur 21.712 -3.18531 -12.5312
ltibia 37.7588
lfoot -12.9529 -13.7834
ltoes 2.94859
